<mxfile host="app.diagrams.net" modified="2020-12-21T01:17:36.308Z" agent="5.0 (Windows NT 10.0; Win64; x64) AppleWebKit/537.36 (KHTML, like Gecko) Chrome/87.0.4280.88 Safari/537.36" etag="-H8R0vKTsOGd3X5EhgHG" version="14.1.1" type="github">
  <diagram id="JGFAAiNvBHoFdd6m88EY" name="Page-1">
    <mxGraphModel dx="929" dy="477" grid="1" gridSize="10" guides="1" tooltips="1" connect="1" arrows="1" fold="1" page="1" pageScale="1" pageWidth="827" pageHeight="1169" math="0" shadow="0">
      <root>
        <mxCell id="0" />
        <mxCell id="1" parent="0" />
        <mxCell id="SEbIsd_mioUrP550YvkY-8" style="edgeStyle=orthogonalEdgeStyle;rounded=0;orthogonalLoop=1;jettySize=auto;html=1;exitX=1;exitY=0.5;exitDx=0;exitDy=0;" edge="1" parent="1" source="SEbIsd_mioUrP550YvkY-1" target="SEbIsd_mioUrP550YvkY-2">
          <mxGeometry relative="1" as="geometry" />
        </mxCell>
        <mxCell id="SEbIsd_mioUrP550YvkY-1" value="G为基点，计算点P =(xP,yP)= [d]G,生成公私钥对(db,Pb)" style="rounded=0;whiteSpace=wrap;html=1;" vertex="1" parent="1">
          <mxGeometry x="40" y="40" width="120" height="60" as="geometry" />
        </mxCell>
        <mxCell id="SEbIsd_mioUrP550YvkY-9" style="edgeStyle=orthogonalEdgeStyle;rounded=0;orthogonalLoop=1;jettySize=auto;html=1;exitX=1;exitY=0.5;exitDx=0;exitDy=0;entryX=0;entryY=0.5;entryDx=0;entryDy=0;" edge="1" parent="1" source="SEbIsd_mioUrP550YvkY-2" target="SEbIsd_mioUrP550YvkY-3">
          <mxGeometry relative="1" as="geometry" />
        </mxCell>
        <mxCell id="SEbIsd_mioUrP550YvkY-2" value="G为基点，计算点P =(xP,yP)= [d]G" style="rounded=0;whiteSpace=wrap;html=1;" vertex="1" parent="1">
          <mxGeometry x="200" y="40" width="120" height="60" as="geometry" />
        </mxCell>
        <mxCell id="SEbIsd_mioUrP550YvkY-11" style="edgeStyle=orthogonalEdgeStyle;rounded=0;orthogonalLoop=1;jettySize=auto;html=1;exitX=0.5;exitY=1;exitDx=0;exitDy=0;entryX=0.5;entryY=0;entryDx=0;entryDy=0;" edge="1" parent="1" source="SEbIsd_mioUrP550YvkY-3" target="SEbIsd_mioUrP550YvkY-10">
          <mxGeometry relative="1" as="geometry" />
        </mxCell>
        <mxCell id="SEbIsd_mioUrP550YvkY-3" value="计算椭圆曲线点C1=[k]G=(x1,y1)，将C1的数据类 型转换为比特串" style="rounded=0;whiteSpace=wrap;html=1;" vertex="1" parent="1">
          <mxGeometry x="360" y="40" width="120" height="60" as="geometry" />
        </mxCell>
        <mxCell id="SEbIsd_mioUrP550YvkY-13" style="edgeStyle=orthogonalEdgeStyle;rounded=0;orthogonalLoop=1;jettySize=auto;html=1;exitX=0.5;exitY=1;exitDx=0;exitDy=0;entryX=0.5;entryY=0;entryDx=0;entryDy=0;" edge="1" parent="1" source="SEbIsd_mioUrP550YvkY-10" target="SEbIsd_mioUrP550YvkY-12">
          <mxGeometry relative="1" as="geometry" />
        </mxCell>
        <mxCell id="SEbIsd_mioUrP550YvkY-10" value="计算椭圆曲线点S=[h]PB" style="rounded=0;whiteSpace=wrap;html=1;" vertex="1" parent="1">
          <mxGeometry x="360" y="140" width="120" height="60" as="geometry" />
        </mxCell>
        <mxCell id="SEbIsd_mioUrP550YvkY-15" style="edgeStyle=orthogonalEdgeStyle;rounded=0;orthogonalLoop=1;jettySize=auto;html=1;exitX=1;exitY=0.5;exitDx=0;exitDy=0;" edge="1" parent="1" source="SEbIsd_mioUrP550YvkY-12" target="SEbIsd_mioUrP550YvkY-14">
          <mxGeometry relative="1" as="geometry" />
        </mxCell>
        <mxCell id="SEbIsd_mioUrP550YvkY-26" style="edgeStyle=orthogonalEdgeStyle;rounded=0;orthogonalLoop=1;jettySize=auto;html=1;exitX=0.5;exitY=1;exitDx=0;exitDy=0;entryX=0.5;entryY=0;entryDx=0;entryDy=0;" edge="1" parent="1" source="SEbIsd_mioUrP550YvkY-12" target="SEbIsd_mioUrP550YvkY-16">
          <mxGeometry relative="1" as="geometry" />
        </mxCell>
        <mxCell id="SEbIsd_mioUrP550YvkY-12" value="s是无穷远点" style="rhombus;whiteSpace=wrap;html=1;" vertex="1" parent="1">
          <mxGeometry x="360" y="240" width="120" height="80" as="geometry" />
        </mxCell>
        <mxCell id="SEbIsd_mioUrP550YvkY-14" value="报错并退出程序" style="rounded=0;whiteSpace=wrap;html=1;" vertex="1" parent="1">
          <mxGeometry x="520" y="250" width="120" height="60" as="geometry" />
        </mxCell>
        <mxCell id="SEbIsd_mioUrP550YvkY-27" style="edgeStyle=orthogonalEdgeStyle;rounded=0;orthogonalLoop=1;jettySize=auto;html=1;exitX=0;exitY=0.5;exitDx=0;exitDy=0;entryX=1;entryY=0.5;entryDx=0;entryDy=0;" edge="1" parent="1" source="SEbIsd_mioUrP550YvkY-16" target="SEbIsd_mioUrP550YvkY-19">
          <mxGeometry relative="1" as="geometry" />
        </mxCell>
        <mxCell id="SEbIsd_mioUrP550YvkY-16" value="计算椭圆曲线点[k]PB=(x2,y2)，将坐标x2、y2 的数据类型转换为比特串" style="rounded=0;whiteSpace=wrap;html=1;" vertex="1" parent="1">
          <mxGeometry x="360" y="360" width="120" height="60" as="geometry" />
        </mxCell>
        <mxCell id="SEbIsd_mioUrP550YvkY-28" style="edgeStyle=orthogonalEdgeStyle;rounded=0;orthogonalLoop=1;jettySize=auto;html=1;exitX=0;exitY=0.5;exitDx=0;exitDy=0;entryX=1;entryY=0.5;entryDx=0;entryDy=0;" edge="1" parent="1" source="SEbIsd_mioUrP550YvkY-19" target="SEbIsd_mioUrP550YvkY-21">
          <mxGeometry relative="1" as="geometry" />
        </mxCell>
        <mxCell id="SEbIsd_mioUrP550YvkY-19" value="计算t=KDF(x2 ∥ y2, klen)" style="rounded=0;whiteSpace=wrap;html=1;" vertex="1" parent="1">
          <mxGeometry x="200" y="360" width="120" height="60" as="geometry" />
        </mxCell>
        <mxCell id="SEbIsd_mioUrP550YvkY-29" style="edgeStyle=orthogonalEdgeStyle;rounded=0;orthogonalLoop=1;jettySize=auto;html=1;exitX=0.5;exitY=0;exitDx=0;exitDy=0;entryX=0.5;entryY=1;entryDx=0;entryDy=0;" edge="1" parent="1" source="SEbIsd_mioUrP550YvkY-21" target="SEbIsd_mioUrP550YvkY-1">
          <mxGeometry relative="1" as="geometry" />
        </mxCell>
        <mxCell id="SEbIsd_mioUrP550YvkY-33" style="edgeStyle=orthogonalEdgeStyle;rounded=0;orthogonalLoop=1;jettySize=auto;html=1;exitX=0.5;exitY=1;exitDx=0;exitDy=0;entryX=0.5;entryY=0;entryDx=0;entryDy=0;" edge="1" parent="1" source="SEbIsd_mioUrP550YvkY-21" target="SEbIsd_mioUrP550YvkY-32">
          <mxGeometry relative="1" as="geometry" />
        </mxCell>
        <mxCell id="SEbIsd_mioUrP550YvkY-21" value="t是否为全0比特串" style="rhombus;whiteSpace=wrap;html=1;" vertex="1" parent="1">
          <mxGeometry x="40" y="350" width="120" height="80" as="geometry" />
        </mxCell>
        <mxCell id="SEbIsd_mioUrP550YvkY-24" value="是" style="text;html=1;align=center;verticalAlign=middle;resizable=0;points=[];autosize=1;" vertex="1" parent="1">
          <mxGeometry x="480" y="260" width="30" height="20" as="geometry" />
        </mxCell>
        <mxCell id="SEbIsd_mioUrP550YvkY-30" value="否" style="text;html=1;align=center;verticalAlign=middle;resizable=0;points=[];autosize=1;" vertex="1" parent="1">
          <mxGeometry x="420" y="330" width="30" height="20" as="geometry" />
        </mxCell>
        <mxCell id="SEbIsd_mioUrP550YvkY-31" value="是" style="text;html=1;align=center;verticalAlign=middle;resizable=0;points=[];autosize=1;" vertex="1" parent="1">
          <mxGeometry x="100" y="230" width="30" height="20" as="geometry" />
        </mxCell>
        <mxCell id="SEbIsd_mioUrP550YvkY-35" style="edgeStyle=orthogonalEdgeStyle;rounded=0;orthogonalLoop=1;jettySize=auto;html=1;exitX=0.5;exitY=1;exitDx=0;exitDy=0;entryX=0.5;entryY=0;entryDx=0;entryDy=0;" edge="1" parent="1" source="SEbIsd_mioUrP550YvkY-32" target="SEbIsd_mioUrP550YvkY-34">
          <mxGeometry relative="1" as="geometry" />
        </mxCell>
        <mxCell id="SEbIsd_mioUrP550YvkY-32" value="C2 = M⊕ t" style="rounded=0;whiteSpace=wrap;html=1;" vertex="1" parent="1">
          <mxGeometry x="40" y="470" width="120" height="60" as="geometry" />
        </mxCell>
        <mxCell id="SEbIsd_mioUrP550YvkY-37" style="edgeStyle=orthogonalEdgeStyle;rounded=0;orthogonalLoop=1;jettySize=auto;html=1;exitX=0.5;exitY=1;exitDx=0;exitDy=0;" edge="1" parent="1" source="SEbIsd_mioUrP550YvkY-34" target="SEbIsd_mioUrP550YvkY-36">
          <mxGeometry relative="1" as="geometry" />
        </mxCell>
        <mxCell id="SEbIsd_mioUrP550YvkY-34" value="计算C3 = Hash(x2 ∥ M ∥ y2)" style="rounded=0;whiteSpace=wrap;html=1;" vertex="1" parent="1">
          <mxGeometry x="40" y="570" width="120" height="60" as="geometry" />
        </mxCell>
        <mxCell id="SEbIsd_mioUrP550YvkY-36" value="输出密文C = C1 ∥ C2 ∥ C3" style="rounded=0;whiteSpace=wrap;html=1;" vertex="1" parent="1">
          <mxGeometry x="40" y="670" width="120" height="60" as="geometry" />
        </mxCell>
        <mxCell id="SEbIsd_mioUrP550YvkY-38" value="否" style="text;html=1;align=center;verticalAlign=middle;resizable=0;points=[];autosize=1;" vertex="1" parent="1">
          <mxGeometry x="100" y="440" width="30" height="20" as="geometry" />
        </mxCell>
      </root>
    </mxGraphModel>
  </diagram>
</mxfile>
